{
    "asset" : {
        "generator" : "Khronos glTF Blender I/O v3.3.32",
        "version" : "2.0"
    },
    "scene" : 0,
    "scenes" : [
        {
            "name" : "Scene",
            "nodes" : [
                0
            ]
        }
    ],
    "nodes" : [
        {
            "mesh" : 0,
            "name" : "logo_buzon_studio",
            "rotation" : [
                0,
                0,
                0.258819043636322,
                0.9659258127212524
            ],
            "translation" : [
                -0.012388288974761963,
                -0.01660478115081787,
                0.6746447682380676
            ]
        }
    ],
    "materials" : [
        {
            "doubleSided" : true,
            "name" : "logo_material",
            "pbrMetallicRoughness" : {
                "baseColorFactor" : [
                    0.800000011920929,
                    0.800000011920929,
                    0.800000011920929,
                    1
                ],
                "metallicFactor" : 0,
                "roughnessFactor" : 0.5
            }
        }
    ],
    "meshes" : [
        {
            "name" : "Curve.003",
            "primitives" : [
                {
                    "attributes" : {
                        "POSITION" : 0,
                        "NORMAL" : 1,
                        "TEXCOORD_0" : 2
                    },
                    "indices" : 3,
                    "material" : 0
                }
            ]
        }
    ],
    "accessors" : [
        {
            "bufferView" : 0,
            "componentType" : 5126,
            "count" : 18090,
            "max" : [
                1.2132890224456787,
                1.0953826904296875,
                0.03010847233235836
            ],
            "min" : [
                -1.1740511655807495,
                -1.0730386972427368,
                -0.029891543090343475
            ],
            "type" : "VEC3"
        },
        {
            "bufferView" : 1,
            "componentType" : 5126,
            "count" : 18090,
            "type" : "VEC3"
        },
        {
            "bufferView" : 2,
            "componentType" : 5126,
            "count" : 18090,
            "type" : "VEC2"
        },
        {
            "bufferView" : 3,
            "componentType" : 5123,
            "count" : 46440,
            "type" : "SCALAR"
        }
    ],
    "bufferViews" : [
        {
            "buffer" : 0,
            "byteLength" : 217080,
            "byteOffset" : 0,
            "target" : 34962
        },
        {
            "buffer" : 0,
            "byteLength" : 217080,
            "byteOffset" : 217080,
            "target" : 34962
        },
        {
            "buffer" : 0,
            "byteLength" : 144720,
            "byteOffset" : 434160,
            "target" : 34962
        },
        {
            "buffer" : 0,
            "byteLength" : 92880,
            "byteOffset" : 578880,
            "target" : 34963
        }
    ],
    "buffers" : [
        {
            "byteLength" : 671760,
            "uri" : "data:application/octet-stream;base64,"
        }
    ]
}
