{
    "asset" : {
        "generator" : "Khronos glTF Blender I/O v3.3.32",
        "version" : "2.0"
    },
    "scene" : 0,
    "scenes" : [
        {
            "name" : "Scene",
            "nodes" : [
                0
            ]
        }
    ],
    "nodes" : [
        {
            "mesh" : 0,
            "name" : "logo_buzon_studio"
        }
    ],
    "meshes" : [
        {
            "name" : "Curve.003",
            "primitives" : [
                {
                    "attributes" : {
                        "POSITION" : 0,
                        "NORMAL" : 1,
                        "TEXCOORD_0" : 2
                    },
                    "indices" : 3
                }
            ]
        }
    ],
    "accessors" : [
        {
            "bufferView" : 0,
            "componentType" : 5126,
            "count" : 1553,
            "max" : [
                0.26346632838249207,
                0.16578137874603271,
                0.027975227683782578
            ],
            "min" : [
                -0.3364776074886322,
                -0.1457955539226532,
                -0.03202478587627411
            ],
            "type" : "VEC3"
        },
        {
            "bufferView" : 1,
            "componentType" : 5126,
            "count" : 1553,
            "type" : "VEC3"
        },
        {
            "bufferView" : 2,
            "componentType" : 5126,
            "count" : 1553,
            "type" : "VEC2"
        },
        {
            "bufferView" : 3,
            "componentType" : 5123,
            "count" : 3981,
            "type" : "SCALAR"
        }
    ],
    "bufferViews" : [
        {
            "buffer" : 0,
            "byteLength" : 18636,
            "byteOffset" : 0,
            "target" : 34962
        },
        {
            "buffer" : 0,
            "byteLength" : 18636,
            "byteOffset" : 18636,
            "target" : 34962
        },
        {
            "buffer" : 0,
            "byteLength" : 12424,
            "byteOffset" : 37272,
            "target" : 34962
        },
        {
            "buffer" : 0,
            "byteLength" : 7962,
            "byteOffset" : 49696,
            "target" : 34963
        }
    ],
    "buffers" : [
        {
            "byteLength" : 57660,
            "uri" : "data:application/octet-stream;base64,"
        }
    ]
}
