{
    "asset" : {
        "generator" : "Khronos glTF Blender I/O v3.3.32",
        "version" : "2.0"
    },
    "scene" : 0,
    "scenes" : [
        {
            "name" : "Scene",
            "nodes" : [
                0
            ]
        }
    ],
    "nodes" : [
        {
            "mesh" : 0,
            "name" : "bisonHead"
        }
    ],
    "meshes" : [
        {
            "name" : "Bison 300k. Stl",
            "primitives" : [
                {
                    "attributes" : {
                        "POSITION" : 0,
                        "NORMAL" : 1,
                        "COLOR_0" : 2
                    },
                    "indices" : 3
                }
            ]
        }
    ],
    "accessors" : [
        {
            "bufferView" : 0,
            "componentType" : 5126,
            "count" : 15342,
            "max" : [
                0.36360812187194824,
                0.4733865559101105,
                0.3710296154022217
            ],
            "min" : [
                -0.35772329568862915,
                -0.5947319865226746,
                -0.32035911083221436
            ],
            "type" : "VEC3"
        },
        {
            "bufferView" : 1,
            "componentType" : 5126,
            "count" : 15342,
            "type" : "VEC3"
        },
        {
            "bufferView" : 2,
            "componentType" : 5123,
            "count" : 15342,
            "normalized" : true,
            "type" : "VEC4"
        },
        {
            "bufferView" : 3,
            "componentType" : 5123,
            "count" : 92040,
            "type" : "SCALAR"
        }
    ],
    "bufferViews" : [
        {
            "buffer" : 0,
            "byteLength" : 184104,
            "byteOffset" : 0,
            "target" : 34962
        },
        {
            "buffer" : 0,
            "byteLength" : 184104,
            "byteOffset" : 184104,
            "target" : 34962
        },
        {
            "buffer" : 0,
            "byteLength" : 122736,
            "byteOffset" : 368208,
            "target" : 34962
        },
        {
            "buffer" : 0,
            "byteLength" : 184080,
            "byteOffset" : 490944,
            "target" : 34963
        }
    ],
    "buffers" : [
        {
            "byteLength" : 675024,
            "uri" : "data:application/octet-stream;base64,"
        }
    ]
}
