<?xml version="1.0" encoding="UTF-8" standalone="no"?><!DOCTYPE svg PUBLIC "-//W3C//DTD SVG 1.1//EN" "http://www.w3.org/Graphics/SVG/1.1/DTD/svg11.dtd"><svg width="100%" height="100%" viewBox="0 0 6159 9354" version="1.1" xmlns="http://www.w3.org/2000/svg" xmlns:xlink="http://www.w3.org/1999/xlink" xml:space="preserve" xmlns:serif="http://www.serif.com/" style="fill-rule:evenodd;clip-rule:evenodd;stroke-linejoin:round;stroke-miterlimit:2;"><rect id="Artboard1" x="0" y="0" width="6158.33" height="9353.27" style="fill:none;"/><rect id="buzonstudio_favicon_green" x="5.504" y="6.392" width="6148.25" height="9269.62" style="fill:none;"/><g><g><path d="M4333.58,1571.83c4.142,1.05 8.538,0.021 11.784,-2.762c99.029,-84.925 1588.27,-1362.03 1786.3,-1531.86c3.896,-3.341 9.379,-4.108 14.046,-1.962c4.662,2.141 7.65,6.808 7.65,11.937c-0,535.617 -0.017,8424.71 -0.017,8820.46c0,3.85 -1.687,7.504 -4.617,10c-2.929,2.495 -6.804,3.583 -10.604,2.975c-152.466,-24.425 -1400.82,-224.409 -1479.93,-237.084c-2.562,-0.412 -4.946,-1.571 -6.85,-3.337c-51.417,-47.629 -765.35,-709.017 -843.783,-781.675c-4.163,-3.863 -10.338,-4.609 -15.3,-1.854c-65.671,36.416 -498.267,276.308 -516.917,286.65c-0.417,0.229 -0.842,0.437 -1.279,0.62c-19.917,8.38 -487.292,205.009 -510.833,214.909c-0.613,0.258 -1.242,0.471 -1.888,0.633c-28.783,7.246 -690.437,173.775 -778.117,195.842c-5.666,1.429 -11.595,-1.059 -14.55,-6.1c-42.62,-72.796 -344.966,-589.163 -373.816,-638.438c-1.434,-2.45 -3.625,-4.366 -6.242,-5.471c-66.271,-27.904 -928.729,-391.07 -1021.33,-430.062c-4.875,-2.05 -8.042,-6.825 -8.042,-12.113l0,-2698.51c0,-3.4 -1.316,-6.667 -3.675,-9.113c-44.129,-45.829 -472.021,-490.225 -540.458,-561.3c-2.438,-2.524 -3.758,-5.925 -3.671,-9.429c0.083,-3.508 1.567,-6.837 4.121,-9.245c184.446,-173.905 2949.38,-2780.82 3086.15,-2909.78c3.271,-3.083 7.888,-4.279 12.246,-3.175c94.996,24.088 1127.19,285.804 1219.61,309.238l0,0.008Zm-854.204,653c-4.071,-1.971 -8.875,-1.712 -12.708,0.692c-3.833,2.404 -6.163,6.608 -6.163,11.133l0,895.913c0,5.108 -2.962,9.754 -7.595,11.912c-77.142,35.921 -717.438,334.075 -784.196,365.163c-3.563,1.658 -6.192,4.82 -7.175,8.62c-17.363,67.121 -174.867,675.996 -196.079,758.009c-1.413,5.454 0.808,11.2 5.52,14.283c54.709,35.829 377.121,246.963 425.746,278.804c3.817,2.5 8.659,2.842 12.788,0.9c106,-49.783 1446.34,-679.308 1562.54,-733.883c4.85,-2.279 7.829,-7.275 7.534,-12.625c-5.646,-101.454 -57.98,-1042.41 -63.263,-1137.4c-0.267,-4.767 -3.096,-9.017 -7.392,-11.096c-78.82,-38.196 -802.866,-389.041 -929.554,-450.429Z" style="fill:#00ff80;"/></g></g></svg>