<?xml version="1.0" encoding="UTF-8" standalone="no"?><!DOCTYPE svg PUBLIC "-//W3C//DTD SVG 1.1//EN" "http://www.w3.org/Graphics/SVG/1.1/DTD/svg11.dtd"><svg width="100%" height="100%" viewBox="0 0 430 496" version="1.1" xmlns="http://www.w3.org/2000/svg" xmlns:xlink="http://www.w3.org/1999/xlink" xml:space="preserve" xmlns:serif="http://www.serif.com/" style="fill-rule:evenodd;clip-rule:evenodd;stroke-linejoin:round;stroke-miterlimit:2;"><rect id="aviorprojekt_logo_white" x="0.901" y="0" width="427.06" height="495.761" style="fill:none;"/><g id="logo"><g><path d="M426.8,375.608l0,-127.04l-1.15,-0.695l-89.106,53.863l-16.666,10.091l-105.578,63.846l0,0.89l-106.206,-64.215l-106.163,62.804l-0,0.456l186.241,112.76c14.345,8.746 36.589,9.505 49.262,1.801l189.366,-114.561Zm-235.481,-370.052c12.673,-7.704 34.895,-6.858 49.262,1.866l186.219,112.782l0,0.434l-106.141,62.761l-106.228,-64.171l-0,0.911l-105.578,63.824l-16.645,10.026l-89.127,53.884l-1.15,-0.651l-0,-127.018l189.388,-114.648" style="fill:#fff;"/><path d="M198.806,367.188l-90.712,-54.84l-106.163,62.804l-0,0.456l186.241,112.76c3.212,1.932 6.858,3.538 10.634,4.688c4.991,1.475 10.308,2.322 15.494,2.387l0,-118.88l-15.494,-9.375Zm15.625,-247.96l-0,-118.924c5.186,0.13 10.503,0.955 15.516,2.43c3.776,1.151 7.422,2.691 10.634,4.688l186.219,112.782l0,0.434l-106.141,62.761l-90.712,-54.796l-15.516,-9.375" style="fill:#fff;"/><path d="M320.008,311.567l105.772,-63.954l1.151,0.716l-0,-0.716l-189.562,-114.497l0,128.559l63.672,38.477l18.967,11.415Zm-192.188,-116.168l73.546,44.51l0,128.559l-199.435,-120.595l-0,-0.651l1.15,0.651l105.772,-63.91l18.967,11.436" style="fill:#fff;"/></g></g></svg>